<svg version="1.1" xmlns="http://www.w3.org/2000/svg" xmlns:xlink="http://www.w3.org/1999/xlink" viewBox="0 0 172 172"><g fill="none" fill-rule="nonzero" stroke="none" stroke-width="1" stroke-linecap="butt" stroke-linejoin="miter" stroke-miterlimit="10" stroke-dasharray="" stroke-dashoffset="0" font-family="none" font-weight="none" font-size="none" text-anchor="none" style="mix-blend-mode: normal"><path d="M0,172v-172h172v172z" fill="none"></path><g fill="#666666"><path d="M19.92529,12.32471l-7.60059,7.60059l48.71094,48.71094l8.45092,8.45093l13.84692,13.84692l12.03077,12.03076l56.71045,56.71045l7.60058,-7.60058l-45.39355,-45.39356l2.6665,-2.656c-4.36174,-4.53837 -9.71494,-8.07461 -15.68408,-10.36158l-18.85449,-18.85449c1.18933,-0.07533 2.38139,-0.13648 3.59033,-0.13648c16.58725,0 31.59912,6.88454 42.34912,17.95166l7.57959,-7.60059c-12.67962,-13.00212 -30.35833,-21.10107 -49.92871,-21.10107c-4.51302,0 -8.91203,0.45995 -13.17505,1.30176l-13.11206,-13.11206c8.29654,-2.71868 17.09068,-4.3147 26.28711,-4.3147c23.99938,0 45.73134,9.90982 61.32959,25.8252l7.60059,-7.60059c-17.54937,-17.87187 -41.96918,-28.97461 -68.93018,-28.97461c-12.27497,0 -24.00529,2.33081 -34.81152,6.54028zM31.28418,54.08594c-5.11162,3.526 -9.87673,7.51803 -14.21436,11.93628l7.60059,7.60059c4.33762,-4.429 9.19495,-8.32882 14.40332,-11.74732zM50.76855,73.57031c-5.39113,3.17663 -10.35427,7.00287 -14.69727,11.45337l7.57959,7.60059c4.35375,-4.48275 9.42783,-8.24055 15.00171,-11.16992zM70.83032,93.63208c-6.00387,2.28437 -11.39256,5.83507 -15.77856,10.39307l7.60058,7.57959c4.43975,-4.65475 10.24526,-8.00951 16.77588,-9.37476zM86,117.67261c-4.74612,0 -8.98566,2.10213 -11.92578,5.35401l11.92578,11.92578l11.92578,-11.92578c-2.94013,-3.25187 -7.17966,-5.35401 -11.92578,-5.35401z"></path></g></g></svg>